<?xml version="1.0" encoding="UTF-8" standalone="no"?>
<svg width="192px" height="192px" viewBox="0 0 192 192" version="1.1" xmlns="http://www.w3.org/2000/svg" xmlns:xlink="http://www.w3.org/1999/xlink" xmlns:sketch="http://www.bohemiancoding.com/sketch/ns">
    <!-- Generator: Sketch 3.5.2 (25235) - http://www.bohemiancoding.com/sketch -->
    <title>easy living logo copy</title>
    <desc>Created with Sketch.</desc>
    <defs>
        <path id="path-1" d="M0,0.596326531 L179.403673,0.596326531 L179.403673,180 L0,180 L0,0.596326531 Z"></path>
    </defs>
    <g id="Desktop" stroke="none" stroke-width="1" fill="none" fill-rule="evenodd" sketch:type="MSPage">
        <g id="Easy-Living---Home" sketch:type="MSArtboardGroup" transform="translate(-234.000000, -28.000000)">
            <g id="Header" sketch:type="MSLayerGroup" transform="translate(240.000000, 0.000000)">
                <g id="easy-living-logo-copy" transform="translate(0.000000, 31.000000)">
                    <path d="M179.403673,90.2987755 C179.403673,139.839184 139.242857,180 89.702449,180 C40.1608163,180 0,139.839184 0,90.2987755 C0,40.7571429 40.1608163,0.596326531 89.702449,0.596326531 C139.242857,0.596326531 179.403673,40.7571429 179.403673,90.2987755" id="Fill-1" fill="#00B7AF" sketch:type="MSShapeGroup"></path>
                    <path d="M69.1506122,146.431592 C69.54,146.431592 69.7628571,146.279755 69.7628571,146.010367 L69.7628571,145.996898 C69.7628571,145.745878 69.5657143,145.581796 69.1371429,145.581796 L68.162449,145.581796 L68.162449,146.431592 L69.1506122,146.431592 Z M68.9669388,144.685469 C69.355102,144.685469 69.5718367,144.553224 69.5718367,144.283837 L69.5718367,144.270367 C69.5718367,144.020571 69.3746939,143.874857 68.9926531,143.874857 L68.162449,143.874857 L68.162449,144.685469 L68.9669388,144.685469 Z M66.9171429,142.84751 L69.2828571,142.84751 C69.8620408,142.84751 70.2710204,142.992 70.5416327,143.261388 C70.7253061,143.446286 70.8379592,143.691184 70.8379592,144.007102 L70.8379592,144.020571 C70.8379592,144.553224 70.5355102,144.869143 70.1265306,145.047918 C70.6861224,145.232816 71.042449,145.548735 71.042449,146.174449 L71.042449,146.187918 C71.042449,146.977714 70.3959184,147.460163 69.295102,147.460163 L66.9171429,147.460163 L66.9171429,142.84751 Z" id="Fill-3" fill="#FEFEFE" sketch:type="MSShapeGroup"></path>
                    <path d="M72.4345714,145.733388 L70.6823265,142.847265 L72.1382449,142.847265 L73.0872245,144.527265 L74.0423265,142.847265 L75.4725306,142.847265 L73.7190612,145.713796 L73.7190612,147.459918 L72.4345714,147.459918 L72.4345714,145.733388 Z" id="Fill-5" fill="#FEFEFE" sketch:type="MSShapeGroup"></path>
                    <path d="M80.2381224,147.505224 C79.2340408,147.505224 78.6193469,147.265224 78.136898,146.850122 C77.6532245,146.438694 77.349551,145.844816 77.3507755,145.168898 L77.3507755,145.156653 C77.349551,144.494204 77.6458776,143.899102 78.132,143.479102 C78.6181224,143.059102 79.2952653,142.808082 80.0936327,142.808082 C81.1932245,142.808082 82.1875102,143.237878 82.1875102,143.237878 L81.5948571,144.632571 C81.5948571,144.632571 81.0964898,144.243184 80.0789388,144.243184 C79.5683265,144.243184 78.9842449,144.473388 78.9842449,145.144408 C78.9842449,145.75298 79.5303673,146.070122 80.0936327,146.070122 C81.0389388,146.070122 81.5973061,145.67951 81.5973061,145.67951 L82.1887347,147.068082 C82.1887347,147.068082 81.1417959,147.505224 80.0017959,147.505224 L80.2381224,147.505224 Z" id="Fill-7" fill="#FEFEFE" sketch:type="MSShapeGroup"></path>
                    <path d="M89.8113061,144.797265 C89.7464082,144.851143 89.6276327,144.895224 89.4476327,144.895224 L88.8292653,144.895224 L88.8292653,144.230327 L89.4402857,144.230327 C89.6215102,144.229102 89.7464082,144.26951 89.8100816,144.320939 C89.8737551,144.373592 89.9068163,144.427469 89.9092653,144.556041 L89.9092653,144.568286 C89.9068163,144.682163 89.8762041,144.743388 89.8113061,144.797265 L89.8113061,144.797265 Z M91.690898,147.422571 L90.6206939,145.858898 C90.8166122,145.74502 90.9843673,145.598082 91.1141633,145.414408 C91.2868163,145.168286 91.3823265,144.862163 91.3823265,144.511959 L91.3823265,144.49849 C91.383551,144.052776 91.2402857,143.670735 90.9562041,143.396449 C90.6341633,143.067061 90.1370204,142.88951 89.470898,142.890735 L87.3182449,142.890735 L87.3182449,147.422571 L88.8537551,147.422571 L88.8537551,145.874816 L89.9055918,147.411551 L89.8945714,147.422571 L91.690898,147.422571 Z" id="Fill-9" fill="#FEFEFE" sketch:type="MSShapeGroup"></path>
                    <path d="M93.2527347,146.028367 L93.2527347,142.89 L91.7172245,142.89 L91.7172245,147.421837 L95.260898,147.421837 L95.260898,146.028367 L93.2527347,146.028367 Z" id="Fill-11" fill="#FEFEFE" sketch:type="MSShapeGroup"></path>
                    <mask id="mask-2" sketch:name="Clip 14" fill="white">
                        <use xlink:href="#path-1"></use>
                    </mask>
                    <g id="Clip-14"></g>
                    <path d="M95.5310204,142.890612 L97.0726531,142.890612 L97.0726531,147.422449 L95.5310204,147.422449 L95.5310204,142.890612 Z" id="Fill-13" fill="#FEFEFE" sketch:type="MSShapeGroup" mask="url(#mask-2)"></path>
                    <path d="M97.3269796,147.018367 L97.8094286,145.84898 L97.9845306,145.917551 C98.4388163,146.095102 98.9677959,146.249388 99.4000408,146.249388 C99.5335102,146.250612 99.562898,146.256735 99.5971837,146.235918 C99.5971837,146.235918 99.675551,146.193061 99.680449,146.11102 C99.682898,146.065714 99.6706531,145.982449 99.5690204,145.948163 C99.5690204,145.948163 99.4539184,145.904082 99.1808571,145.842857 C98.8453469,145.765714 98.5318776,145.681224 98.2588163,145.552653 C97.9869796,145.424082 97.7518776,145.244082 97.6098367,144.977143 C97.515551,144.799592 97.4665714,144.58898 97.4665714,144.351429 L97.4665714,144.339184 C97.4665714,143.903265 97.6441224,143.510204 97.9649388,143.239592 C98.2845306,142.96898 98.7326939,142.819592 99.2653469,142.819592 C100.003714,142.818367 100.372286,142.896735 100.942898,143.146531 L101.133918,143.23102 L100.640449,144.407755 L100.459224,144.342857 C100.055143,144.195918 99.4722857,144.036735 99.1551429,144.037959 C99.1551429,144.037959 99.0437143,144.036735 99.0118776,144.129796 C98.9616735,144.284082 99.0865714,144.334286 99.0865714,144.334286 C99.1563673,144.374694 99.2996327,144.39551 99.5788163,144.457959 C100.067388,144.565714 100.476367,144.69551 100.783714,144.92449 C101.094735,145.15102 101.280857,145.5 101.275959,145.938367 L101.275959,145.949388 C101.279633,146.42449 101.081265,146.828571 100.742082,147.094286 C100.405347,147.36 99.9424898,147.493469 99.4073878,147.493469 C98.6335102,147.493469 98.1694286,147.404082 97.4971837,147.096735 L97.3269796,147.018367 Z" id="Fill-15" fill="#FEFEFE" sketch:type="MSShapeGroup" mask="url(#mask-2)"></path>
                    <path d="M101.588939,147.422327 L101.588939,143.083959 L101.588939,142.89049 L103.124449,142.89049 L103.124449,146.028857 L105.131388,146.028857 L105.131388,147.422327 L101.588939,147.422327 Z" id="Fill-16" fill="#FEFEFE" sketch:type="MSShapeGroup" mask="url(#mask-2)"></path>
                    <path d="M105.378122,147.422327 L105.378122,143.083959 L105.378122,142.89049 L109.134857,142.89049 L109.134857,144.179878 L106.902612,144.179878 L106.902612,144.511714 L109.134857,144.511714 L109.134857,145.801102 L106.902612,145.801102 L106.902612,146.132939 L109.134857,146.132939 L109.134857,147.422327 L105.378122,147.422327 Z" id="Fill-17" fill="#FEFEFE" sketch:type="MSShapeGroup" mask="url(#mask-2)"></path>
                    <path d="M85.033102,145.853265 L84.6400408,144.757347 L84.2298367,145.853265 L85.033102,145.853265 Z M85.6049388,147.421837 L85.4090204,146.977347 L83.8661633,146.977347 L83.6690204,147.421837 L82.038,147.421837 L83.9665714,142.89 L85.3294286,142.89 L87.258,147.421837 L85.6049388,147.421837 Z" id="Fill-18" fill="#FEFEFE" sketch:type="MSShapeGroup" mask="url(#mask-2)"></path>
                    <path d="M49.7958367,120.669673 L51.1819592,120.669673 L51.1819592,131.67049 L58.0954286,131.67049 L58.0954286,132.951306 L49.7958367,132.951306 L49.7958367,120.669673 Z" id="Fill-19" fill="#FEFEFE" sketch:type="MSShapeGroup" mask="url(#mask-2)"></path>
                    <path d="M64.5759184,132.951429 L63.1897959,132.951429 L63.1897959,120.669796 L64.5759184,120.669796 L64.5759184,132.951429 Z" id="Fill-20" fill="#FEFEFE" sketch:type="MSShapeGroup" mask="url(#mask-2)"></path>
                    <path d="M79.8756735,120.669673 L81.367102,120.669673 L76.0846531,133.039469 L74.8577143,133.039469 L69.5752653,120.669673 L71.1193469,120.669673 L75.4883265,131.25049 L79.8756735,120.669673 Z" id="Fill-21" fill="#FEFEFE" sketch:type="MSShapeGroup" mask="url(#mask-2)"></path>
                    <path d="M87.7885714,132.951429 L86.4036735,132.951429 L86.4036735,120.669796 L87.7885714,120.669796 L87.7885714,132.951429 Z" id="Fill-22" fill="#FEFEFE" sketch:type="MSShapeGroup" mask="url(#mask-2)"></path>
                    <path d="M103.085755,120.669673 L104.436367,120.669673 L104.436367,132.951306 L103.331878,132.951306 L95.4008571,122.879878 L95.4008571,132.951306 L94.0502449,132.951306 L94.0502449,120.669673 L95.3482041,120.669673 L103.085755,130.513347 L103.085755,120.669673 Z" id="Fill-23" fill="#FEFEFE" sketch:type="MSShapeGroup" mask="url(#mask-2)"></path>
                    <path d="M115.457633,133.162041 C111.596816,133.162041 109.21151,130.354286 109.21151,126.827755 C109.21151,123.440816 111.68498,120.459184 115.369469,120.459184 C117.440082,120.459184 118.720898,121.05551 119.949061,122.090204 L119.053959,123.143265 C118.107429,122.317959 117.054367,121.738776 115.316816,121.738776 C112.597224,121.738776 110.649061,124.038367 110.649061,126.792245 C110.649061,129.740816 112.527429,131.916735 115.509061,131.916735 C116.913551,131.916735 118.21151,131.373061 119.053959,130.688571 L119.053959,127.634694 L115.316816,127.634694 L115.316816,126.389388 L120.387429,126.389388 L120.387429,131.284898 C119.247429,132.302449 117.52702,133.162041 115.457633,133.162041" id="Fill-24" fill="#FEFEFE" sketch:type="MSShapeGroup" mask="url(#mask-2)"></path>
                    <path d="M29.6093878,73.4175918 C32.2469388,68.300449 34.9444898,65.7424898 37.7057143,65.7424898 C38.5812245,65.7424898 39.3440816,65.9947347 39.9955102,66.4992245 C40.7240816,67.0722857 41.1587755,67.8118776 41.3008163,68.7216735 C41.8138776,72.020449 40.0946939,75.5726939 36.1420408,79.3759592 C33.2387755,82.1371837 29.7918367,84.3253469 25.802449,85.9416735 C26.3546939,81.4967755 27.6244898,77.3237143 29.6093878,73.4175918 M45.8693878,95.1388163 C45.6942857,93.1122857 45.6930612,91.1702449 45.84,89.3482041 C42.4322449,96.5237143 36.6440816,104.675143 30.7885714,104.675143 C29.4746939,104.675143 28.3102041,104.220857 27.2938776,103.312286 C26.2383673,102.369429 25.5587755,100.920857 25.2538776,98.9690204 C24.9195918,96.8151429 24.9171429,94.4237143 25.2489796,91.7984082 C30.7506122,89.5098367 35.1759184,87.2371837 38.5297959,84.980449 C45.8767347,80.0665714 49.08,74.5784082 48.1371429,68.5196327 C47.7697959,66.1637143 46.6628571,64.2449388 44.817551,62.7633061 C42.897551,61.2486122 40.2220408,60.4906531 36.7873469,60.4906531 C27.7995918,60.4906531 20.7918367,65.1033061 15.7628571,74.3261633 C11.8861224,81.4294286 10.5134694,88.6171837 11.6461224,95.8882041 C12.2693878,99.8947347 13.8404082,103.177592 16.3591837,105.734327 C19.5502041,108.933918 23.6877551,110.531878 28.7706122,110.531878 C37.915102,110.531878 43.557551,102.385347 46.1473469,97.4592245 C46.0334694,96.6951429 45.9367347,95.9224898 45.8693878,95.1388163" id="Fill-25" fill="#FEFEFE" sketch:type="MSShapeGroup" mask="url(#mask-2)"></path>
                    <path d="M77.188898,86.1423673 C75.8701224,91.7309388 74.3260408,96.0325714 72.5566531,99.0448163 C70.7872653,102.058286 68.9260408,103.564408 66.9729796,103.564408 C66.266449,103.564408 65.5795102,103.261959 64.9133878,102.655837 C64.2019592,101.981143 63.7501224,101.022367 63.5554286,99.7770612 C63.2884898,98.0603265 63.3117551,95.7203265 63.6252245,92.7582857 C64.3195102,86.1925714 66.0484898,80.0995102 68.8084898,74.4778776 C71.2599184,69.4623673 73.7309388,66.9533878 76.221551,66.9533878 C78.141551,66.9533878 79.2521633,67.9305306 79.5558367,69.8823673 C79.944,72.3742041 79.1542041,77.7937959 77.188898,86.1423673 M93.4942041,99.5737959 C93.4819592,99.4942041 93.4782857,99.4182857 93.4684898,99.3386939 C92.0921633,101.817061 90.8419592,103.058694 89.7203265,103.058694 C88.8778776,103.058694 88.3807347,102.571347 88.228898,101.594204 C88.1235918,100.920735 88.2484898,99.3399184 88.6011429,96.8480816 L94.161551,61.8533878 L82.1946122,61.8533878 L81.804,64.5301224 C79.8974694,61.8031837 77.4631837,60.4403265 74.5011429,60.4403265 C71.5733878,60.4403265 68.6762449,61.2986939 65.8133878,63.0154286 C61.8644082,65.3382857 58.5766531,68.7558367 55.9452245,73.2656327 C53.7852245,76.9011429 52.2656327,80.8831837 51.3913469,85.2080816 C50.5158367,89.5342041 50.3848163,93.6668571 50.9982857,97.6060408 C51.564,101.241551 52.8521633,104.220735 54.8627755,106.542367 C57.1513469,109.134612 60.0974694,110.431347 63.6999184,110.431347 C68.3456327,110.431347 72.5113469,107.569714 76.1995102,101.847673 C76.5423673,103.395429 76.9954286,104.692163 77.5623673,105.734204 C79.2999184,108.900735 81.9533878,110.481551 85.521551,110.481551 C89.419102,110.481551 92.5231837,108.944816 95.3407347,105.243184 C94.2509388,103.591347 93.7917551,101.487673 93.4942041,99.5737959" id="Fill-26" fill="#FEFEFE" sketch:type="MSShapeGroup" mask="url(#mask-2)"></path>
                    <path d="M117.634286,60.4399592 C121.606531,60.4399592 124.724082,61.3326122 126.988163,63.1154694 C129.063673,64.7660816 130.273469,66.702 130.62,68.9232245 C130.855102,70.4379184 130.544082,71.684449 129.685714,72.6603673 C128.922857,73.6032245 127.852653,74.0734286 126.472653,74.0734286 C124.081224,74.0734286 122.326531,72.5256735 121.204898,69.4277143 C120.620816,67.846898 120.068571,66.7852653 119.548163,66.2464898 C119.07551,65.8093469 118.402041,65.5901633 117.526531,65.5901633 C116.483265,65.5901633 115.665306,65.9611837 115.073878,66.702 C114.42,67.477102 114.171429,68.3673061 114.329388,69.3775102 C114.628163,71.2962857 117.062449,75.3701633 121.634694,81.5979184 C123.346531,83.9550612 124.763265,86.1260816 125.88,88.1122041 C126.991837,90.0652653 127.713061,92.1015918 128.042449,94.2224082 C128.755102,98.8007755 127.575918,102.790163 124.502449,106.189347 C121.945714,109.017918 117.957551,110.432204 112.537959,110.432204 C107.892245,110.432204 104.113469,109.185673 101.200408,106.695061 C98.8285714,104.641592 97.4314286,102.268531 97.0126531,99.5746531 C96.7138776,97.6558776 97.1179592,96.1399592 98.2236735,95.0305714 C99.0636735,94.1550612 100.122857,93.7179184 101.402449,93.7179184 C103.388571,93.7179184 105.06,94.6093469 106.41551,96.3934286 C107.139184,97.3705714 107.676735,98.7664898 108.026939,100.584857 C108.389388,102.705673 108.93551,104.052612 109.665306,104.624449 C110.393878,105.19751 111.413878,105.482816 112.727755,105.482816 C114.142041,105.482816 115.234286,105.045673 116.006939,104.170163 C116.870204,103.227306 117.189796,102.032204 116.96449,100.584857 C116.769796,99.339551 116.156327,97.8248571 115.120408,96.039551 C114.086939,94.2566939 112.381224,91.7979184 110.009388,88.6681224 C108.051429,86.0415918 106.427755,83.617102 105.140816,81.3958776 C103.978776,79.3436327 103.213469,77.1211837 102.841224,74.7309796 C102.217959,70.724449 103.208571,67.3583265 105.814286,64.6313878 C108.476327,61.837102 112.41551,60.4399592 117.634286,60.4399592" id="Fill-27" fill="#FEFEFE" sketch:type="MSShapeGroup" mask="url(#mask-2)"></path>
                    <path d="M153.712041,95.5027347 C155.368776,92.5921224 156.746327,89.588449 157.842245,86.4904898 C159.688776,81.2655918 160.612041,77.0251837 160.612041,73.7704898 C160.612041,72.6133469 160.11,71.4549796 159.109592,70.2966122 C157.32551,68.2321224 156.434082,66.3696735 156.434082,64.7117143 C156.434082,63.4602857 156.871224,62.4280408 157.747959,61.6137551 C158.592857,60.8619184 159.59449,60.4872245 160.752857,60.4872245 C162.505102,60.4872245 164.006327,61.2696735 165.25898,62.8333469 C166.665918,64.6174286 167.37,67.0431429 167.37,70.1092653 C167.37,74.0839592 166.243469,79.0272245 163.990408,84.9427347 C161.738571,90.8557959 158.15449,98.2088571 153.241837,107.001918 C147.922653,116.546816 143.352857,122.944776 139.536122,126.200694 C136.063469,129.172531 132.746327,130.659061 129.584694,130.659061 C127.676939,130.659061 126.049592,129.986816 124.703878,128.641102 C123.358163,127.295388 122.685918,125.652122 122.685918,123.712531 C122.685918,122.179469 123.108367,120.880286 123.953265,119.816204 C125.047959,118.439878 126.550408,117.751714 128.459388,117.751714 C130.116122,117.751714 131.322245,118.392122 132.072857,119.676612 C132.35449,120.144367 132.525918,121.03702 132.589592,122.352122 C132.652041,123.352531 133.058571,123.853347 133.810408,123.853347 C134.936939,123.853347 136.156531,123.108857 137.471633,121.623551 C138.78551,120.13702 139.87898,118.283143 140.756939,116.061918 C142.352449,112.119061 143.150816,106.548857 143.150816,99.3513061 C143.150816,92.1549796 142.368367,84.4566122 140.803469,76.2574286 C140.176531,72.9721224 139.411224,71.3300816 138.502653,71.3300816 C137.564694,71.3300816 136.812857,72.3941633 136.249592,74.521102 C135.937347,75.8349796 135.734082,77.1500816 135.639796,78.4639592 L131.322245,77.3839592 C131.447143,74.943551 131.88551,72.4725306 132.636122,69.968449 C134.545102,63.6157959 137.798571,60.4394694 142.400204,60.4394694 C144.088776,60.4394694 145.498163,60.8472245 146.624694,61.6602857 C147.75,62.4745714 148.751633,63.8043673 149.628367,65.6496735 C151.50551,69.5300816 152.772857,76.1802857 153.429184,85.5978367 C153.617755,88.6027347 153.712041,91.9051837 153.712041,95.5027347" id="Fill-28" fill="#FEFEFE" sketch:type="MSShapeGroup" mask="url(#mask-2)"></path>
                </g>
            </g>
        </g>
    </g>
</svg>